<svg width="347" height="78" viewBox="0 0 347 78" fill="none" xmlns="http://www.w3.org/2000/svg">
<path d="M29.3544 75.527C15.4034 68.9601 6.36805 56.1038 3.22942 38.3527C0.872832 25.028 2.61496 13.8299 2.69177 13.3581L2.85237 12.366L3.84737 12.5464C5.28227 12.8066 6.7451 12.9349 8.19397 12.9349C20.3679 12.9349 28.9669 3.75234 29.0541 3.65867L29.7838 2.86426L30.5135 3.65867C30.5973 3.75234 39.2241 12.9349 51.3702 12.9349C52.819 12.9349 54.2818 12.8031 55.7167 12.5464L56.7118 12.366L56.8723 13.3581C56.9457 13.8265 58.6878 25.028 56.3347 38.3527C53.1961 56.1038 44.1607 68.9601 30.2097 75.527L29.7873 75.7282L29.3649 75.527H29.3544Z" stroke="#04006F" stroke-width="3.77027" stroke-miterlimit="10"/>
<path d="M86.3956 53.2964H80.3201V31.8295H68.321V27.1716H98.4454V31.8295H86.3956V53.2964ZM103.964 31.8802H109.179V53.2964H103.964V31.8802ZM118.698 31.8802H122.9L133.38 44.5881L143.81 31.8802H148.012V53.2964H143.152V38.5632L133.583 50.7143H132.57L122.9 38.9177V53.2964H118.698V31.8802ZM157.51 31.8802H180.496V35.6774H162.776V40.3353H173.104V44.0312H162.776V49.2967H180.749V53.2964H157.51V31.8802ZM202.388 53.2964H196.313V31.8295H184.314V27.1716H214.438V31.8295H202.388V53.2964ZM219.957 31.8802H239.246C242.588 31.8802 244.259 33.264 244.259 36.0318V41.0947C244.259 43.8287 242.588 45.1957 239.246 45.1957H236.31L246.486 53.2964H238.993L230.032 45.1957H225.121V53.2964H219.957V31.8802ZM225.121 35.5761V41.4997H237.019C238.605 41.4997 239.398 40.9259 239.398 39.7784V37.2975C239.398 36.1499 238.605 35.5761 237.019 35.5761H225.121ZM258.1 49.2967H272.985V31.8802H278.251V48.2335C278.251 50.2249 277.846 51.575 277.036 52.2838C276.259 52.9589 274.791 53.2964 272.631 53.2964H258.455C256.295 53.2964 254.843 52.9589 254.101 52.2838C253.291 51.575 252.886 50.2249 252.886 48.2335V31.8802H258.1V49.2967ZM292.855 35.728V40.234H306.778C308.938 40.234 310.406 40.5715 311.183 41.2466C311.959 41.9554 312.347 43.3055 312.347 45.2969V48.2335C312.347 50.2249 311.959 51.575 311.183 52.2838C310.406 52.9589 308.938 53.2964 306.778 53.2964H292.906C290.745 53.2964 289.26 52.9589 288.45 52.2838C287.64 51.575 287.235 50.2249 287.235 48.2335V47.6259L291.893 46.7652V49.2967H307.639V44.3856H293.766C291.64 44.3856 290.172 44.0481 289.362 43.373C288.551 42.6642 288.146 41.3141 288.146 39.3227V36.9431C288.146 34.9517 288.551 33.6016 289.362 32.8928C290.172 32.2177 291.64 31.8802 293.766 31.8802H306.474C308.533 31.8802 309.968 32.1839 310.778 32.7915C311.655 33.4666 312.094 34.7154 312.094 36.5381V37.0444L307.588 38.0063V35.728H292.855ZM334.122 53.2964H328.907V35.728H318.579V31.8802H344.501V35.728H334.122V53.2964Z" fill="white"/>
<path d="M55.8196 13.5142C40.7043 16.2409 29.7418 4.32471 29.7418 4.32471C29.7418 4.32471 18.7793 16.2409 3.66399 13.5142C3.66399 13.5142 -3.59903 58.9241 29.7418 74.6389C63.0826 58.9241 55.8196 13.5142 55.8196 13.5142Z" fill="url(#paint0_linear_260_9086)"/>
<path d="M55.8196 13.5142C40.7043 16.2409 29.7418 4.32471 29.7418 4.32471C29.7418 4.32471 18.7793 16.2409 3.66399 13.5142C3.66399 13.5142 -3.59903 58.9241 29.7418 74.6389C63.0826 58.9241 55.8196 13.5142 55.8196 13.5142Z" stroke="#EEEDFF" stroke-width="2.15444" stroke-miterlimit="10"/>
<path d="M29.6679 24.9171C32.0847 24.9171 34.0439 22.5253 34.0439 19.5748C34.0439 16.6243 32.0847 14.2324 29.6679 14.2324C27.2512 14.2324 25.292 16.6243 25.292 19.5748C25.292 22.5253 27.2512 24.9171 29.6679 24.9171Z" stroke="white" stroke-width="2" stroke-miterlimit="10"/>
<path d="M50.5294 19.0093C42.9805 29.3783 30.9789 31.824 19.5282 26.3568C16.0798 24.7229 12.8475 22.5825 10.1592 19.887C14.7966 22.9918 19.9048 25.4791 25.3512 26.7418C35.2154 29.0071 43.3326 25.8468 50.5294 19.0059V19.0093Z" fill="white"/>
<path d="M10.1621 19.8901C23.2167 28.4136 29.7754 43.0218 21.2257 57.2276C20.1553 58.969 18.9279 60.6307 17.4495 62.0461C18.0458 61.2239 18.5793 60.3636 19.0814 59.4928C22.9413 52.9225 24.6254 44.843 22.359 37.4852C20.225 30.502 15.4376 24.8717 10.1621 19.8901Z" fill="white"/>
<path d="M50.5301 19.0093C46.5272 27.1754 41.5446 34.849 36.0285 42.0819C30.467 49.2386 24.4 56.194 17.4473 62.0463C24.8742 53.5159 32.0082 44.7045 38.7272 35.6226C42.7754 30.197 46.6458 24.5494 50.5301 19.0127V19.0093Z" fill="white"/>
<path d="M9.83846 31.4458C9.83846 31.4458 7.04553 45.4018 19.6957 48.5031C23.4091 35.744 9.83846 31.4458 9.83846 31.4458Z" stroke="white" stroke-width="2.15444" stroke-miterlimit="10"/>
<path d="M18.936 48.9265L14.4834 39.2964L20.4563 48.0766L18.936 48.9265Z" fill="white"/>
<path d="M29.5264 74.3154H29.5273C29.5287 74.3158 29.5305 74.3162 29.5312 74.3164V74.3174C29.5303 74.3171 29.5288 74.3163 29.5264 74.3154ZM55.5742 28.1719C55.5951 29.0364 55.6004 30.0932 55.5625 31.3057C55.4521 34.8405 54.9907 39.6916 53.5869 44.959C50.792 55.446 44.2737 67.5512 29.375 74.252C29.3725 74.2508 29.3697 74.2502 29.3672 74.249C29.2245 74.1836 28.9858 74.0627 28.626 73.8496C27.9052 73.4228 26.7084 72.6304 24.8398 71.1807C22.9701 69.73 21.9018 68.7803 21.3057 68.2002C21.1782 68.0761 21.0742 67.9678 20.9873 67.877C21.1593 67.784 21.3699 67.672 21.6133 67.5352C22.3706 67.1092 23.46 66.4695 24.7939 65.6123C27.4614 63.8981 31.1098 61.3112 35.0391 57.8184C42.4376 51.2416 50.849 41.4353 55.5742 28.1719Z" fill="url(#paint1_linear_260_9086)" stroke="white"/>
<defs>
<linearGradient id="paint0_linear_260_9086" x1="29.7418" y1="4.32471" x2="29.7418" y2="74.6389" gradientUnits="userSpaceOnUse">
<stop stop-color="#1088F8"/>
<stop offset="1" stop-color="#04006F"/>
</linearGradient>
<linearGradient id="paint1_linear_260_9086" x1="18.2722" y1="78.4461" x2="49.7918" y2="37.7135" gradientUnits="userSpaceOnUse">
<stop stop-color="#5EAD4F"/>
<stop offset="1" stop-color="#358626"/>
</linearGradient>
</defs>
</svg>
