<svg width="347" height="78" viewBox="0 0 347 78" fill="none" xmlns="http://www.w3.org/2000/svg">
<path d="M29.3544 75.6628C15.4034 69.0959 6.36805 56.2395 3.22942 38.4884C0.872832 25.1638 2.61496 13.9657 2.69177 13.4939L2.85237 12.5017L3.84737 12.6821C5.28227 12.9423 6.7451 13.0707 8.19397 13.0707C20.3679 13.0707 28.9669 3.88808 29.0541 3.79441L29.7838 3L30.5135 3.79441C30.5973 3.88808 39.2241 13.0707 51.3702 13.0707C52.819 13.0707 54.2818 12.9388 55.7167 12.6821L56.7118 12.5017L56.8723 13.4939C56.9457 13.9622 58.6878 25.1638 56.3347 38.4884C53.1961 56.2395 44.1607 69.0959 30.2097 75.6628L29.7873 75.864L29.3649 75.6628H29.3544Z" stroke="#04006F" stroke-width="3.77027" stroke-miterlimit="10"/>
<path d="M86.3958 53.432H80.3202V31.9652H68.3211V27.3073H98.4455V31.9652H86.3958V53.432ZM103.964 32.0158H109.179V53.432H103.964V32.0158ZM118.698 32.0158H122.9L133.381 44.7238L143.81 32.0158H148.012V53.432H143.152V38.6989L133.583 50.8499H132.571L122.9 39.0533V53.432H118.698V32.0158ZM157.511 32.0158H180.496V35.813H162.776V40.4709H173.104V44.1668H162.776V49.4323H180.749V53.432H157.511V32.0158ZM202.388 53.432H196.313V31.9652H184.314V27.3073H214.438V31.9652H202.388V53.432ZM219.957 32.0158H239.247C242.588 32.0158 244.259 33.3997 244.259 36.1674V41.2303C244.259 43.9643 242.588 45.3313 239.247 45.3313H236.31L246.487 53.432H238.993L230.032 45.3313H225.121V53.432H219.957V32.0158ZM225.121 35.7117V41.6354H237.019C238.605 41.6354 239.398 41.0616 239.398 39.914V37.4331C239.398 36.2855 238.605 35.7117 237.019 35.7117H225.121ZM258.1 49.4323H272.985V32.0158H278.251V48.3691C278.251 50.3605 277.846 51.7106 277.036 52.4194C276.26 53.0945 274.791 53.432 272.631 53.432H258.455C256.295 53.432 254.843 53.0945 254.101 52.4194C253.291 51.7106 252.886 50.3605 252.886 48.3691V32.0158H258.1V49.4323ZM292.855 35.8636V40.3696H306.778C308.938 40.3696 310.407 40.7072 311.183 41.3822C311.959 42.091 312.347 43.4411 312.347 45.4326V48.3691C312.347 50.3605 311.959 51.7106 311.183 52.4194C310.407 53.0945 308.938 53.432 306.778 53.432H292.906C290.746 53.432 289.26 53.0945 288.45 52.4194C287.64 51.7106 287.235 50.3605 287.235 48.3691V47.7615L291.893 46.9008V49.4323H307.639V44.5212H293.766C291.64 44.5212 290.172 44.1837 289.362 43.5087C288.552 42.7998 288.147 41.4497 288.147 39.4583V37.0787C288.147 35.0873 288.552 33.7372 289.362 33.0284C290.172 32.3533 291.64 32.0158 293.766 32.0158H306.474C308.533 32.0158 309.968 32.3196 310.778 32.9271C311.655 33.6022 312.094 34.851 312.094 36.6737V37.18L307.588 38.1419V35.8636H292.855ZM334.122 53.432H328.908V35.8636H318.579V32.0158H344.501V35.8636H334.122V53.432Z" fill="#04006F"/>
<path d="M55.8196 13.65C40.7043 16.3766 29.7418 4.46045 29.7418 4.46045C29.7418 4.46045 18.7793 16.3766 3.66399 13.65C3.66399 13.65 -3.59903 59.0599 29.7418 74.7747C63.0826 59.0599 55.8196 13.65 55.8196 13.65Z" fill="url(#paint0_linear_177_227)"/>
<path d="M55.8196 13.65C40.7043 16.3766 29.7418 4.46045 29.7418 4.46045C29.7418 4.46045 18.7793 16.3766 3.66399 13.65C3.66399 13.65 -3.59903 59.0599 29.7418 74.7747C63.0826 59.0599 55.8196 13.65 55.8196 13.65Z" stroke="#EEEDFF" stroke-width="2.15444" stroke-miterlimit="10"/>
<path d="M29.6679 25.0528C32.0847 25.0528 34.0439 22.6609 34.0439 19.7104C34.0439 16.7599 32.0847 14.3681 29.6679 14.3681C27.2512 14.3681 25.292 16.7599 25.292 19.7104C25.292 22.6609 27.2512 25.0528 29.6679 25.0528Z" stroke="white" stroke-width="2" stroke-miterlimit="10"/>
<path d="M50.5294 19.1449C42.9805 29.5139 30.9789 31.9596 19.5282 26.4923C16.0798 24.8584 12.8475 22.718 10.1592 20.0226C14.7966 23.1274 19.9048 25.6147 25.3512 26.8774C35.2154 29.1427 43.3326 25.9824 50.5294 19.1414V19.1449Z" fill="white"/>
<path d="M10.1621 20.026C23.2167 28.5495 29.7754 43.1576 21.2257 57.3634C20.1553 59.1049 18.9279 60.7666 17.4495 62.1819C18.0458 61.3598 18.5793 60.4994 19.0814 59.6287C22.9413 53.0583 24.6254 44.9789 22.359 37.621C20.225 30.6378 15.4376 25.0076 10.1621 20.026Z" fill="white"/>
<path d="M50.5301 19.145C46.5272 27.3112 41.5446 34.9847 36.0285 42.2177C30.467 49.3743 24.4 56.3298 17.4473 62.1821C24.8742 53.6517 32.0082 44.8403 38.7272 35.7583C42.7754 30.3327 46.6458 24.6851 50.5301 19.1485V19.145Z" fill="white"/>
<path d="M9.83846 31.5814C9.83846 31.5814 7.04553 45.5374 19.6957 48.6388C23.4091 35.8796 9.83846 31.5814 9.83846 31.5814Z" stroke="white" stroke-width="2.15444" stroke-miterlimit="10"/>
<path d="M18.936 49.0621L14.4834 39.432L20.4563 48.2122L18.936 49.0621Z" fill="white"/>
<path d="M29.5264 74.4509H29.5273C29.5287 74.4513 29.5305 74.4517 29.5312 74.4519V74.4529C29.5303 74.4526 29.5288 74.4518 29.5264 74.4509ZM55.5742 28.3074C55.5951 29.1719 55.6004 30.2287 55.5625 31.4412C55.4521 34.976 54.9907 39.8271 53.5869 45.0945C50.792 55.5815 44.2737 67.6867 29.375 74.3875C29.3725 74.3863 29.3697 74.3857 29.3672 74.3845C29.2245 74.3191 28.9858 74.1982 28.626 73.9851C27.9052 73.5583 26.7084 72.7659 24.8398 71.3162C22.9701 69.8655 21.9018 68.9158 21.3057 68.3357C21.1782 68.2116 21.0742 68.1033 20.9873 68.0125C21.1593 67.9195 21.3699 67.8075 21.6133 67.6707C22.3706 67.2447 23.46 66.605 24.7939 65.7478C27.4614 64.0336 31.1098 61.4467 35.0391 57.9539C42.4376 51.3771 50.849 41.5708 55.5742 28.3074Z" fill="url(#paint1_linear_177_227)" stroke="white"/>
<defs>
<linearGradient id="paint0_linear_177_227" x1="29.7418" y1="4.46045" x2="29.7418" y2="74.7747" gradientUnits="userSpaceOnUse">
<stop stop-color="#1088F8"/>
<stop offset="1" stop-color="#04006F"/>
</linearGradient>
<linearGradient id="paint1_linear_177_227" x1="18.2722" y1="78.5816" x2="49.7918" y2="37.849" gradientUnits="userSpaceOnUse">
<stop stop-color="#5EAD4F"/>
<stop offset="1" stop-color="#358626"/>
</linearGradient>
</defs>
</svg>
