<svg width="25" height="25" viewBox="0 0 25 25" fill="none" xmlns="http://www.w3.org/2000/svg">
<g clip-path="url(#clip0_263_5801)">
<path d="M19.98 0.728027H5.97998C3.21898 0.728027 0.97998 2.96703 0.97998 5.72803V19.728C0.97998 22.489 3.21898 24.728 5.97998 24.728H19.98C22.742 24.728 24.98 22.489 24.98 19.728V5.72803C24.98 2.96703 22.742 0.728027 19.98 0.728027ZM8.97998 19.728H5.97998V8.72803H8.97998V19.728ZM7.47998 7.46003C6.51398 7.46003 5.72998 6.67003 5.72998 5.69603C5.72998 4.72203 6.51398 3.93203 7.47998 3.93203C8.44598 3.93203 9.22998 4.72203 9.22998 5.69603C9.22998 6.67003 8.44698 7.46003 7.47998 7.46003ZM20.98 19.728H17.98V14.124C17.98 10.756 13.98 11.011 13.98 14.124V19.728H10.98V8.72803H13.98V10.493C15.376 7.90703 20.98 7.71603 20.98 12.969V19.728Z" fill="white"/>
</g>
<defs>
<clipPath id="clip0_263_5801">
<rect width="24" height="24" fill="white" transform="translate(0.97998 0.728027)"/>
</clipPath>
</defs>
</svg>
