<svg width="25" height="25" viewBox="0 0 25 25" fill="none" xmlns="http://www.w3.org/2000/svg">
<g clip-path="url(#clip0_263_5797)">
<path d="M12.98 2.89103C16.184 2.89103 16.564 2.90303 17.83 2.96103C21.082 3.10903 22.601 4.65203 22.749 7.88003C22.807 9.14503 22.818 9.52503 22.818 12.729C22.818 15.934 22.806 16.313 22.749 17.578C22.6 20.803 21.085 22.349 17.83 22.497C16.564 22.555 16.186 22.567 12.98 22.567C9.77598 22.567 9.39598 22.555 8.13098 22.497C4.87098 22.348 3.35998 20.798 3.21198 17.577C3.15398 16.312 3.14198 15.933 3.14198 12.728C3.14198 9.52403 3.15498 9.14503 3.21198 7.87903C3.36098 4.65203 4.87598 3.10803 8.13098 2.96003C9.39698 2.90303 9.77598 2.89103 12.98 2.89103ZM12.98 0.728027C9.72098 0.728027 9.31298 0.742027 8.03298 0.800027C3.67498 1.00003 1.25298 3.41803 1.05298 7.78003C0.99398 9.06103 0.97998 9.46903 0.97998 12.728C0.97998 15.987 0.99398 16.396 1.05198 17.676C1.25198 22.034 3.66998 24.456 8.03198 24.656C9.31298 24.714 9.72098 24.728 12.98 24.728C16.239 24.728 16.648 24.714 17.928 24.656C22.282 24.456 24.71 22.038 24.907 17.676C24.966 16.396 24.98 15.987 24.98 12.728C24.98 9.46903 24.966 9.06103 24.908 7.78103C24.712 3.42703 22.291 1.00103 17.929 0.801027C16.648 0.742027 16.239 0.728027 12.98 0.728027ZM12.98 6.56603C9.57698 6.56603 6.81798 9.32503 6.81798 12.728C6.81798 16.131 9.57698 18.891 12.98 18.891C16.383 18.891 19.142 16.132 19.142 12.728C19.142 9.32503 16.383 6.56603 12.98 6.56603ZM12.98 16.728C10.771 16.728 8.97998 14.938 8.97998 12.728C8.97998 10.519 10.771 8.72803 12.98 8.72803C15.189 8.72803 16.98 10.519 16.98 12.728C16.98 14.938 15.189 16.728 12.98 16.728ZM19.386 4.88303C18.59 4.88303 17.945 5.52803 17.945 6.32303C17.945 7.11803 18.59 7.76303 19.386 7.76303C20.181 7.76303 20.825 7.11803 20.825 6.32303C20.825 5.52803 20.181 4.88303 19.386 4.88303Z" fill="white"/>
</g>
<defs>
<clipPath id="clip0_263_5797">
<rect width="24" height="24" fill="white" transform="translate(0.97998 0.728027)"/>
</clipPath>
</defs>
</svg>
