<svg width="64" height="64" viewBox="0 0 64 64" fill="none" xmlns="http://www.w3.org/2000/svg">
<rect width="64" height="64" rx="8" fill="#FFECE6"/>
<path d="M48.6668 26.7704C48.6668 29.3479 47.6772 31.8235 45.9098 33.6548C41.8416 37.8717 37.8959 42.2688 33.6757 46.3329C32.7083 47.2509 31.1738 47.2173 30.2482 46.2578L18.0898 33.6548C14.4147 29.8453 14.4147 23.6954 18.0898 19.886C21.8009 16.0391 27.8467 16.0391 31.5579 19.886L31.9998 20.344L32.4414 19.8862C34.2209 18.0408 36.6442 17 39.1757 17C41.7072 17 44.1304 18.0407 45.9098 19.886C47.6773 21.7174 48.6668 24.1929 48.6668 26.7704Z" stroke="#C24141" stroke-width="2.5" stroke-linejoin="round"/>
</svg>
